<?xml version="1.0" encoding="utf-8"?>
<!-- Generator: Adobe Illustrator 16.0.4, SVG Export Plug-In . SVG Version: 6.00 Build 0)  -->
<!DOCTYPE svg PUBLIC "-//W3C//DTD SVG 1.1//EN" "http://www.w3.org/Graphics/SVG/1.1/DTD/svg11.dtd">
<svg version="1.1" id="Layer_1" xmlns="http://www.w3.org/2000/svg" xmlns:xlink="http://www.w3.org/1999/xlink" x="0px" y="0px"
	 width="380px" height="368px" viewBox="0 0 380 368" enable-background="new 0 0 380 368" xml:space="preserve">
	<g>
		<path fill="#FFFFFF" d="M20.878-0.593c115,0,230,0,345,0c-0.088,1.66-0.254,3.319-0.254,4.979
			c0.002,93,0.017,185.999,0.028,278.999c0.001,4.5,0.261,9.027-0.175,13.485c-0.173,1.769-1.546,4.366-3.003,4.917
			c-15.824,5.977-31.769,11.638-47.691,17.352c-11.558,4.148-23.149,8.205-34.697,12.381c-11.854,4.287-23.663,8.701-35.512,13.001
			c-14.966,5.433-29.937,10.854-44.94,16.182c-6.465,2.296-12.732,5.448-19.906,1.267c-4.389-2.557-9.51-3.861-14.314-5.696
			c-16.424-6.273-32.854-12.527-49.278-18.797c-16.12-6.153-32.245-12.292-48.35-18.485c-13.778-5.298-27.42-10.979-41.352-15.834
			c-5.124-1.786-5.858-4.63-5.851-9.258c0.11-68.666,0.07-137.333,0.105-205.999C20.703,58.402,20.812,28.905,20.878-0.593z"/>
		<path fill-rule="evenodd" clip-rule="evenodd" d="M502.878-134.593c-0.066,29.498-0.175,58.995-0.19,88.493
			c-0.036,68.666,0.004,137.333-0.105,205.999c-0.007,4.628,0.727,7.472,5.851,9.258c13.931,4.854,27.574,10.536,41.352,15.834
			c16.105,6.193,32.23,12.332,48.35,18.485c16.424,6.27,32.854,12.523,49.278,18.797c4.805,1.835,9.926,3.14,14.314,5.696
			c7.174,4.182,13.441,1.029,19.906-1.267c15.004-5.327,29.975-10.749,44.94-16.182c11.849-4.3,23.657-8.714,35.512-13.001
			c11.548-4.176,23.14-8.232,34.697-12.381c15.923-5.714,31.867-11.375,47.691-17.352c1.457-0.551,2.83-3.148,3.003-4.917
			c0.436-4.458,0.176-8.985,0.175-13.485c-0.012-93-0.026-185.999-0.028-278.999c0-1.66,0.166-3.319,0.254-4.979
			c33.667,0,67.333,0,101,0c0,122.667,0,245.333,0,368c-178,0-356,0-534,0c0-122.667,0-245.333,0-368
			C444.211-134.593,473.544-134.593,502.878-134.593z"/>
	</g>
</svg>
