<?xml version="1.0" encoding="utf-8"?>
<!-- Generator: Adobe Illustrator 22.1.0, SVG Export Plug-In . SVG Version: 6.00 Build 0)  -->
<svg version="1.1" id="Layer_1" xmlns="http://www.w3.org/2000/svg" xmlns:xlink="http://www.w3.org/1999/xlink" x="0px" y="0px"
	 viewBox="0 0 380 368" style="enable-background:new 0 0 380 368;" xml:space="preserve">
<style type="text/css">
	.st0{fill:#FFFFFF;}
</style>
<g>
	<path class="st0" d="M18.5,1.3c115,0,230,0,345,0c-0.1,1.7-0.3,3.3-0.3,5c0,93,0,186,0,279c0,4.5,0.3,9-0.2,13.5
		c-0.2,1.8-1.5,4.4-3,4.9c-15.8,6-31.8,11.6-47.7,17.4c-11.6,4.1-23.1,8.2-34.7,12.4c-11.9,4.3-23.7,8.7-35.5,13
		c-15,5.4-29.9,10.9-44.9,16.2c-6.5,2.3-12.7,5.4-19.9,1.3c-4.4-2.6-9.5-3.9-14.3-5.7c-16.4-6.3-32.9-12.5-49.3-18.8
		c-16.1-6.2-32.2-12.3-48.3-18.5c-13.8-5.3-27.4-11-41.4-15.8c-5.1-1.8-5.9-4.6-5.9-9.3c0.1-68.7,0.1-137.3,0.1-206
		C18.3,60.3,18.5,30.8,18.5,1.3z"/>
</g>
<image style="overflow:visible;" width="1200" height="1311" xlink:href="logo.png"  transform="matrix(0.2108 0 0 0.2108 64.3817 45.4578)">
</image>
</svg>
